<?xml version="1.0" encoding="UTF-8"?>
<svg width="74px" height="74px" viewBox="0 0 74 74" version="1.1" xmlns="http://www.w3.org/2000/svg" xmlns:xlink="http://www.w3.org/1999/xlink">
    <!-- Generator: Sketch 43.2 (39069) - http://www.bohemiancoding.com/sketch -->
    <title>Artboard</title>
    <desc>Created with Sketch.</desc>
    <defs>
        <rect id="path-1" x="2" y="33" width="16" height="41" rx="8"></rect>
        <rect id="path-2" x="20" y="33" width="16" height="41" rx="8"></rect>
        <rect id="path-3" x="38" y="33" width="16" height="41" rx="8"></rect>
        <rect id="path-4" x="56" y="33" width="16" height="41" rx="8"></rect>
    </defs>
    <g id="Page-1" stroke="none" stroke-width="1" fill="none" fill-rule="evenodd">
        <g id="Artboard">
            <g id="Rectangle">
                <use fill="#FF7A71" fill-rule="evenodd" xlink:href="#path-1"></use>
                <rect stroke="#234C5B" stroke-width="1" x="2.5" y="33.5" width="15" height="40" rx="7.5"></rect>
            </g>
            <g id="Rectangle">
                <use fill="#D8261B" fill-rule="evenodd" xlink:href="#path-2"></use>
                <rect stroke="#234C5B" stroke-width="1" x="20.5" y="33.5" width="15" height="40" rx="7.5"></rect>
            </g>
            <g id="Rectangle">
                <use fill="#577399" fill-rule="evenodd" xlink:href="#path-3"></use>
                <rect stroke="#234C5B" stroke-width="1" x="38.5" y="33.5" width="15" height="40" rx="7.5"></rect>
            </g>
            <g id="Rectangle">
                <use fill="#BDD5EA" fill-rule="evenodd" xlink:href="#path-4"></use>
                <rect stroke="#234C5B" stroke-width="1" x="56.5" y="33.5" width="15" height="40" rx="7.5"></rect>
            </g>
            <path d="M25.0702703,66.5270588 C24.7297297,66.5270588 24.3040541,66.4482353 23.9635135,66.3694118 C20.9837838,65.5023529 20.7283784,61.9552941 20.9837838,59.9847059 L23.2824324,46.5058824 L14.8540541,55.8070588 C13.4067568,57.3047059 10.2567568,59.1964706 7.7027027,57.5411765 C5.14864865,55.8858824 6,52.4176471 6.85135135,50.6047059 L15.3648649,35.3917647 C13.2364865,31.8447059 12.1297297,27.8247059 12.1297297,23.8047059 C12.1297297,10.8776471 23.1121622,0.315294118 36.7337838,0.315294118 C50.3554054,0.315294118 61.3378378,10.7988235 61.3378378,23.7258824 C61.3378378,27.7458824 60.2310811,31.6870588 58.1878378,35.1552941 L67.8932432,51.2352941 L67.8932432,51.2352941 C68.9148649,52.9694118 69.9364865,56.3588235 67.4675676,58.1717647 C64.9986486,59.9847059 61.8486486,58.1717647 60.3162162,56.8317647 L50.5256757,46.5847059 L53.3351351,59.3541176 C53.7608108,61.3247059 53.5905405,64.8717647 50.6959459,65.8964706 C47.8013514,66.9211765 45.3324324,64.32 44.3108108,62.5858824 L36.8189189,48.7129412 L30.0932432,62.6647059 C29.327027,64.2411765 27.4540541,66.5270588 25.0702703,66.5270588 Z" id="Shape" fill="#FFFFFF" fill-rule="nonzero"></path>
            <path d="M25.0702703,66.5270588 C24.7297297,66.5270588 24.3040541,66.4482353 23.9635135,66.3694118 C20.9837838,65.5023529 20.7283784,61.9552941 20.9837838,59.9847059 L23.2824324,46.5058824 L14.8540541,55.8070588 C13.4067568,57.3047059 10.2567568,59.1964706 7.7027027,57.5411765 C5.14864865,55.8858824 6,52.4176471 6.85135135,50.6047059 L15.3648649,35.3917647 C13.2364865,31.8447059 12.1297297,27.8247059 12.1297297,23.8047059 C12.1297297,10.8776471 23.1121622,0.315294118 36.7337838,0.315294118 C50.3554054,0.315294118 61.3378378,10.7988235 61.3378378,23.7258824 C61.3378378,27.7458824 60.2310811,31.6870588 58.1878378,35.1552941 L67.8932432,51.2352941 L67.8932432,51.2352941 C68.9148649,52.9694118 69.9364865,56.3588235 67.4675676,58.1717647 C64.9986486,59.9847059 61.8486486,58.1717647 60.3162162,56.8317647 L50.5256757,46.5847059 L53.3351351,59.3541176 C53.7608108,61.3247059 53.5905405,64.8717647 50.6959459,65.8964706 C47.8013514,66.9211765 45.3324324,64.32 44.3108108,62.5858824 L36.8189189,48.7129412 L30.0932432,62.6647059 C29.327027,64.2411765 27.4540541,66.5270588 25.0702703,66.5270588 Z M24.9,41.8552941 C25.0702703,41.8552941 25.3256757,41.9341176 25.4959459,42.0129412 C25.9216216,42.2494118 26.2621622,42.8011765 26.177027,43.2741176 L23.1972973,60.3 C23.1972973,60.3 22.7716216,63.6894118 24.5594595,64.1623529 C26.3472973,64.7141176 27.9648649,61.7188235 27.9648649,61.64 L35.7121622,45.6388235 C35.8824324,45.2447059 36.3081081,45.0082353 36.7337838,45.0082353 C37.1594595,45.0082353 37.5851351,45.2447059 37.8405405,45.6388235 L46.3540541,61.5611765 L46.3540541,61.5611765 C46.3540541,61.5611765 48.1418919,64.4776471 49.9297297,63.8470588 C51.6324324,63.2164706 51.0364865,59.9058824 51.0364865,59.9058824 L47.3756757,43.3529412 C47.2905405,42.88 47.4608108,42.4070588 47.9716216,42.1705882 C48.4824324,41.9341176 49.1635135,41.9341176 49.5891892,42.3282353 L62.0189189,55.4917647 L62.0189189,55.4917647 C62.0189189,55.4917647 64.6581081,57.6988235 66.1054054,56.5952941 C67.5527027,55.5705882 66.0202703,52.6541176 65.9351351,52.4964706 L55.8891892,35.7858824 C55.6337838,35.4705882 55.7189189,34.9976471 55.8891892,34.6823529 C57.9324324,31.3717647 59.0391892,27.5882353 59.0391892,23.8047059 C59.0391892,12.06 49.0783784,2.60117647 36.8189189,2.60117647 C24.5594595,2.60117647 14.5986486,12.1388235 14.5986486,23.8047059 C14.5986486,27.6670588 15.7054054,31.4505882 17.8337838,34.84 C18.0891892,35.1552941 18.0891892,35.6282353 17.8337838,35.9435294 L8.97972973,51.7082353 L8.97972973,51.7082353 C8.97972973,51.7082353 7.53243243,54.7823529 9.06486486,55.8070588 C10.5972973,56.8317647 13.0662162,54.4670588 13.1513514,54.3882353 L24.0486486,42.3282353 C24.2189189,42.0129412 24.5594595,41.8552941 24.9,41.8552941 Z M25.3256757,20.3364706 C25.8364865,18.9964706 27.1135135,18.1294118 28.6459459,18.1294118 C30.2635135,18.1294118 31.7108108,18.9964706 32.2216216,20.3364706 C32.477027,20.8882353 33.1581081,21.2035294 33.7540541,20.9670588 C34.35,20.7305882 34.6905405,20.1 34.4351351,19.5482353 C33.5837838,17.3411765 31.2,15.9223529 28.6459459,15.9223529 C26.177027,15.9223529 23.9635135,17.42 23.1121622,19.5482353 C23.027027,19.7058824 23.027027,19.7847059 23.027027,19.9423529 C23.027027,20.4152941 23.2824324,20.8094118 23.7932432,20.9670588 C23.9635135,21.0458824 24.0486486,21.0458824 24.2189189,21.0458824 C24.7297297,21.1247059 25.1554054,20.8094118 25.3256757,20.3364706 Z M42.8635135,20.3364706 C43.3743243,18.9964706 44.6513514,18.1294118 46.1837838,18.1294118 C47.8013514,18.1294118 49.2486486,18.9964706 49.7594595,20.3364706 C50.0148649,20.8882353 50.6959459,21.2035294 51.2918919,20.9670588 C51.8878378,20.7305882 52.2283784,20.1 51.972973,19.5482353 C51.1216216,17.3411765 48.7378378,15.9223529 46.1837838,15.9223529 C43.7148649,15.9223529 41.5013514,17.42 40.65,19.5482353 C40.5648649,19.7058824 40.5648649,19.7847059 40.5648649,19.9423529 C40.5648649,20.4152941 40.8202703,20.8094118 41.3310811,20.9670588 C41.5013514,21.0458824 41.5864865,21.0458824 41.7567568,21.0458824 C42.2675676,21.1247059 42.6932432,20.8094118 42.8635135,20.3364706 Z M37.7554054,31.1352941 C40.2243243,31.1352941 42.3527027,29.6376471 43.2040541,27.4305882 C43.2891892,27.2729412 43.2891892,27.1941176 43.2891892,27.0364706 C43.2891892,26.5635294 42.9486486,26.1694118 42.522973,26.0117647 C41.927027,25.7752941 41.2459459,26.0905882 40.9905405,26.7211765 C40.9905405,26.8 40.9905405,26.8 40.9054054,26.8788235 C40.3945946,28.0611765 39.2027027,28.8494118 37.8405405,28.9282353 L37.6702703,28.9282353 C36.1378378,28.9282353 34.6054054,28.0611765 34.0945946,26.7211765 C33.8391892,26.1694118 33.1581081,25.8541176 32.5621622,26.0905882 C31.9662162,26.3270588 31.7108108,26.9576471 31.8810811,27.5094118 C32.8175676,29.7164706 35.1162162,31.1352941 37.7554054,31.1352941 C37.6702703,31.1352941 37.7554054,31.1352941 37.7554054,31.1352941 Z" id="Shape" fill="#000000" fill-rule="nonzero"></path>
        </g>
    </g>
</svg>